<svg width="301" height="116" viewBox="0 0 301 116" fill="none" xmlns="http://www.w3.org/2000/svg">
<path d="M195.33 0.182775C185.156 2.02115 177.264 8.74073 173.999 18.3129C173.619 19.4857 173.175 21.1022 173.08 21.8629C172.858 23.1941 172.604 23.4794 168.737 26.8392C157.771 36.3797 147.533 49.1849 141.098 61.4196C138.88 65.6035 138.531 66.9348 139.038 69.0584C139.545 71.2137 141.732 73.4324 143.824 73.9713C144.934 74.2565 163 74.3516 216.377 74.3516H287.439L287.217 75.9681C286.584 80.7542 283.604 84.6212 278.85 86.8082C277.36 87.5055 277.36 87.5055 246.615 87.664C216.028 87.8542 215.87 87.8542 213.334 88.5515C202.747 91.4992 195.077 99.7719 193.239 110.295C193.048 111.341 192.89 112.799 192.89 113.56L192.864 115.116H199.635C207.178 115.116 206.234 115.24 206.678 112.102C207.09 109.059 209.53 105.446 212.478 103.544C215.965 101.325 213.492 101.483 247.566 101.293C281.988 101.103 279.642 101.262 285.062 98.7259C293.715 94.7322 299.516 86.7448 300.625 77.3628C301.132 73.0521 301.069 57.521 300.498 52.7349C297.265 25.1276 281.797 6.90235 257.074 1.6091C250.83 0.277863 247.978 0.0242872 239.325 0.0559833C233.461 0.0559833 229.911 0.214471 226.995 0.62652C222.906 1.16535 215.838 2.4332 213.841 3.03542C212.953 3.28899 212.541 3.19389 211.242 2.55997C208.326 1.07026 204.427 0.151076 200.497 0.0242917C198.5 -0.0391005 196.155 0.0242944 195.33 0.182775ZM203.35 13.8755C208.516 15.4286 212.193 19.771 212.985 25.2861L213.207 26.8075H186.139L186.329 24.874C187.026 17.1719 195.679 11.5934 203.35 13.8755ZM181.384 41.2292C184.269 42.5605 185.79 45.9202 184.966 49.0265C184.395 51.0867 182.145 53.2104 179.99 53.7175C175.552 54.7952 171.083 50.7697 171.78 46.364C172.541 41.6413 177.074 39.2007 181.384 41.2292Z" fill="url(#paint0_linear_2_320)"/>
<path d="M0.96875 77.47H22.6796C25.4832 77.47 27.9321 77.7656 30.0263 78.3567C32.1375 78.9478 33.8939 79.7754 35.2957 80.8394C36.7144 81.9034 37.7784 83.1785 38.4878 84.6648C39.1971 86.151 39.5518 87.7892 39.5518 89.5795C39.5518 91.7919 39.0282 93.7595 37.9811 95.4822C36.934 97.188 35.3802 98.5475 33.3197 99.5609L41.2238 115.141H24.681L18.7022 101.461H15.6115V115.116H0.96875V77.47ZM16.4982 96.8755C17.6973 96.8755 18.7698 96.7066 19.7156 96.3689C20.6614 96.0311 21.4636 95.5582 22.1223 94.9502C22.7809 94.3253 23.2876 93.5906 23.6423 92.7462C23.997 91.8848 24.1743 90.9475 24.1743 89.9341C24.1743 88.9208 23.997 87.9919 23.6423 87.1474C23.2876 86.2861 22.7809 85.5514 22.1223 84.9434C21.4636 84.3185 20.6614 83.8372 19.7156 83.4994C18.7698 83.1616 17.6973 82.9927 16.4982 82.9927H15.6369L15.6115 96.8755H16.4982Z" fill="white"/>
<path d="M58.6533 86.9701L54.2959 77.47H69.724L88.1669 115.141H71.624L68.8374 109.112H53.9919L51.2305 115.141H44.8211L58.6533 86.9701ZM66.1773 103.31L61.4146 92.9742L56.6772 103.31H66.1773Z" fill="white"/>
<path d="M99.947 83.2461H89.2055V77.4447H125.331V83.2461H114.59V115.116H99.947V83.2461Z" fill="white"/>
<path d="M130.829 77.47H145.497L145.471 115.116H130.829V77.47Z" fill="white"/>
<path d="M155.149 77.47H164.32L188.209 97.5342L188.234 77.47H193.808V115.116H184.637L160.722 95.1275V115.116H155.149V77.47Z" fill="white"/>
<path d="M201.231 96.3182C201.231 94.528 201.459 92.8053 201.915 91.1502C202.387 89.4781 203.071 87.9243 203.967 86.4888C204.862 85.0532 205.959 83.7443 207.26 82.5621C208.56 81.3798 210.038 80.3665 211.693 79.522C213.365 78.6776 215.206 78.0274 217.216 77.5714C219.226 77.0985 221.388 76.862 223.701 76.862C225.188 76.862 226.606 76.9549 227.957 77.1407C229.325 77.3265 230.609 77.5882 231.808 77.926C233.007 78.2469 234.113 78.6269 235.127 79.066C236.157 79.4883 237.086 79.9358 237.914 80.4087L235.735 84.6648C234.789 84.2088 233.708 83.8288 232.492 83.5247C231.293 83.2039 230.043 83.0434 228.743 83.0434C227.003 83.0434 225.39 83.3559 223.904 83.9808C222.418 84.6056 221.134 85.4923 220.053 86.6408C218.972 87.7892 218.12 89.1826 217.495 90.8208C216.887 92.4422 216.583 94.2662 216.583 96.2929C216.583 98.3027 216.887 100.127 217.495 101.765C218.103 103.386 218.939 104.78 220.003 105.945C221.084 107.093 222.359 107.989 223.828 108.63C225.314 109.255 226.919 109.568 228.641 109.568V96.8249H243.411L240.776 101.613V111.848L240.802 111.898C239.974 112.388 238.952 112.861 237.736 113.317C236.52 113.773 235.161 114.187 233.657 114.558C232.171 114.913 230.584 115.2 228.895 115.42C227.206 115.639 225.475 115.749 223.701 115.749C220.239 115.749 217.115 115.242 214.328 114.229C211.558 113.199 209.202 111.805 207.26 110.049C205.318 108.276 203.823 106.215 202.776 103.868C201.746 101.503 201.231 98.9867 201.231 96.3182Z" fill="white"/>
<path d="M249.592 106.756C251.383 107.668 253.257 108.352 255.216 108.808C257.175 109.264 258.999 109.492 260.688 109.492C262.631 109.492 264.049 109.213 264.944 108.656C265.856 108.098 266.312 107.338 266.312 106.376C266.312 106.072 266.253 105.759 266.135 105.438C266.034 105.117 265.823 104.805 265.502 104.501C265.198 104.18 264.767 103.868 264.21 103.564C263.669 103.243 262.96 102.93 262.082 102.626L257.547 101.081C254.304 99.9662 251.864 98.4631 250.226 96.5715C248.587 94.6631 247.768 92.3999 247.768 89.7821C247.768 88.0932 248.123 86.4719 248.832 84.9181C249.542 83.3474 250.614 81.971 252.05 80.7887C253.485 79.5896 255.292 78.6354 257.471 77.926C259.667 77.2167 262.234 76.862 265.172 76.862C266.625 76.862 268.018 76.9465 269.352 77.1154C270.687 77.2843 271.936 77.5038 273.102 77.774C274.284 78.0443 275.365 78.3567 276.345 78.7114C277.324 79.0492 278.185 79.3869 278.929 79.7247L276.193 84.6648C275.652 84.327 275.078 84.0314 274.47 83.7781C273.879 83.5247 273.279 83.3136 272.671 83.1447C272.08 82.9759 271.497 82.8492 270.923 82.7647C270.349 82.6803 269.825 82.6381 269.352 82.6381C268.542 82.6381 267.832 82.7479 267.224 82.9674C266.616 83.1701 266.101 83.4488 265.679 83.8034C265.274 84.1412 264.961 84.5296 264.742 84.9688C264.539 85.391 264.438 85.8132 264.438 86.2354C264.438 86.607 264.522 86.9701 264.691 87.3248C264.877 87.6626 265.181 88.0003 265.603 88.3381C266.042 88.659 266.608 88.9883 267.3 89.3261C268.01 89.647 268.888 89.9848 269.935 90.3395L272.975 91.3528C276.269 92.4506 278.785 93.9622 280.525 95.8875C282.264 97.8129 283.134 100.144 283.134 102.88C283.134 104.737 282.712 106.452 281.867 108.022C281.04 109.593 279.798 110.953 278.143 112.101C276.488 113.233 274.428 114.119 271.962 114.761C269.513 115.386 266.667 115.698 263.424 115.698C261.871 115.698 260.367 115.614 258.915 115.445C257.479 115.293 256.069 115.057 254.684 114.736C253.316 114.415 251.965 114.009 250.631 113.52C249.297 113.03 247.962 112.456 246.628 111.797L249.592 106.756Z" fill="white"/>
<defs>
<linearGradient id="paint0_linear_2_320" x1="150.969" y1="-1.48801" x2="150.969" y2="114.769" gradientUnits="userSpaceOnUse">
<stop stop-color="#D5224E"/>
<stop offset="1" stop-color="#FF003F"/>
</linearGradient>
</defs>
</svg>
